<?xml version="1.0" encoding="utf-8"?>
<!-- Generator: Adobe Illustrator 19.0.0, SVG Export Plug-In . SVG Version: 6.00 Build 0)  -->
<svg version="1.1" id="Layer_1" xmlns="http://www.w3.org/2000/svg" xmlns:xlink="http://www.w3.org/1999/xlink" x="0px" y="0px"
	 viewBox="-207 379.3 196.8 35.7" style="enable-background:new -207 379.3 196.8 35.7;" xml:space="preserve">
<style type="text/css">
	.st0{fill:#12151b;}
</style>
<g id="XMLID_299_">
	<polygon id="XMLID_363_" class="st0" points="-194.1,379.3 -195.3,379.3 -207,407.4 -205.8,407.4 -197.9,388.5 -188.7,407.4
		-181.1,407.4 	"/>
	<g id="XMLID_300_">
		<path id="XMLID_361_" class="st0" d="M-170.1,406.7h1.8v0.7h-9v-0.7h1.8V380h-1.8v-0.7h7.2V406.7z"/>
		<path id="XMLID_358_" class="st0" d="M-159.3,392.5c0.8-1.4,2.3-2.1,4.4-2.1s3.9,0.8,5.3,2.3c1.4,1.5,2.1,3.7,2.1,6.5
			c0,2.8-0.7,5-2.1,6.6c-1.4,1.6-3.1,2.4-5.1,2.4c-1,0-1.9-0.2-2.8-0.6c-0.9-0.4-1.5-1-1.9-1.8v8.5h1.8v0.7h-7.2v-23.4h-1.8v-0.7
			h7.2L-159.3,392.5L-159.3,392.5z M-159.3,398.7v5.9c0.6,1.3,1.5,1.9,2.5,1.9s1.9-0.6,2.7-1.8c0.8-1.2,1.1-3.1,1.1-5.8
			c0-2.7-0.3-4.5-0.9-5.6c-0.6-1.1-1.5-1.6-2.6-1.6s-1.9,0.6-2.3,1.6C-159.2,394.3-159.3,396.1-159.3,398.7z"/>
		<path id="XMLID_356_" class="st0" d="M-126.1,406.7h1.8v0.7h-9v-0.7h1.8v-10.1c0-1.7-0.3-2.9-0.8-3.6c-0.5-0.7-1.3-1.1-2.3-1.1
			c-1.4,0-2.5,0.7-3.3,2.2v12.6h1.9v0.7h-9v-0.7h1.8V380h-1.8v-0.7h7.2v13.4c0.5-0.6,1.2-1.2,2.1-1.6c1-0.4,2-0.6,3.2-0.6
			c4.3,0,6.4,2.3,6.4,6.9C-126.1,397.4-126.1,406.7-126.1,406.7z"/>
		<path id="XMLID_353_" class="st0" d="M-105.7,407.3c-0.7,0.2-1.5,0.3-2.3,0.3c-2,0-3.2-0.6-3.7-1.8c-1.2,1.2-3,1.9-5.5,1.9
			c-1.3,0-2.4-0.3-3.3-0.9s-1.3-1.5-1.3-2.7c0-1.6,0.6-2.8,1.9-3.7c1.2-0.9,3.4-1.5,6.6-1.9l1.4-0.2v-1.8c0-2.1-0.2-3.5-0.5-4.2
			s-0.9-1.1-1.9-1.1c-0.9,0-1.5,0.1-1.8,0.4c-0.3,0.3-0.4,0.5-0.3,0.9c0.1,0.4,0.2,0.8,0.4,1.3c0.2,0.5,0.3,0.9,0.3,1.3
			c0,0.7-0.3,1.4-0.8,1.9s-1.1,0.8-1.9,0.8s-1.4-0.3-1.9-0.8s-0.8-1.1-0.8-1.9c0-1.2,0.6-2.3,1.9-3.2s3.1-1.3,5.7-1.3
			s4.3,0.5,5.4,1.5s1.6,2.7,1.6,5.2v6.5c0,1.3,0.2,2.1,0.5,2.4c0.3,0.3,0.9,0.4,1.7,0.2v0.4C-104.6,406.9-105,407.2-105.7,407.3z
			 M-115.8,405.5c0.6,0.5,1.2,0.7,1.9,0.7s1.4-0.4,1.9-1.1V399l-1.3,0.2c-1.1,0.1-2,0.6-2.7,1.3c-0.7,0.7-1,1.7-0.9,2.9
			C-116.7,404.3-116.3,405-115.8,405.5z"/>
		<path id="XMLID_308_" class="st0" d="M-71.9,406.7h1.8v0.7h-9v-0.7h1.8v-10.1c0-1.7-0.3-2.9-0.8-3.6c-0.5-0.7-1.3-1.1-2.3-1.1
			c-0.6,0-1.2,0.2-1.8,0.5c-0.6,0.3-1.1,0.8-1.5,1.4c0.3,0.9,0.4,2.1,0.4,3.6v9.3h1.8v0.7h-9.4v-0.7h2.2v-10.1
			c0-1.7-0.3-2.9-0.8-3.6c-0.5-0.7-1.3-1.1-2.3-1.1c-1.4,0-2.5,0.7-3.3,2.2v12.6h1.8v0.7h-9v-0.7h1.8v-15.1h-1.8v-0.7h7.2v1.9
			c0.5-0.6,1.2-1.2,2.1-1.6c1-0.4,2-0.7,3.2-0.7c2.9,0,4.7,0.8,5.6,2.4c0.6-0.8,1.5-1.4,2.5-1.8c1-0.4,2.1-0.6,3.3-0.6
			c4.3,0,6.4,2.3,6.4,6.9v9.3H-71.9z"/>
		<path id="XMLID_305_" class="st0" d="M-51.5,407.3c-0.7,0.2-1.5,0.3-2.3,0.3c-2,0-3.2-0.6-3.7-1.8c-1.2,1.2-3,1.9-5.5,1.9
			c-1.3,0-2.4-0.3-3.3-0.9c-0.9-0.6-1.3-1.5-1.3-2.7c0-1.6,0.6-2.8,1.9-3.7c1.2-0.9,3.4-1.5,6.6-1.9l1.4-0.2v-1.8
			c0-2.1-0.2-3.5-0.5-4.2s-0.9-1.1-1.9-1.1c-0.9,0-1.5,0.1-1.8,0.4c-0.3,0.3-0.4,0.5-0.3,0.9c0.1,0.4,0.2,0.8,0.4,1.3
			s0.3,0.9,0.3,1.3c0,0.7-0.3,1.4-0.8,1.9s-1.1,0.8-1.9,0.8s-1.4-0.3-1.9-0.8s-0.8-1.1-0.8-1.9c0-1.2,0.6-2.3,1.9-3.2
			c1.3-0.9,3.1-1.3,5.7-1.3c2.5,0,4.3,0.5,5.4,1.5c1.1,1,1.6,2.7,1.6,5.2v6.5c0,1.3,0.2,2.1,0.5,2.4c0.3,0.3,0.9,0.4,1.7,0.2v0.4
			C-50.4,406.9-50.8,407.2-51.5,407.3z M-61.6,405.5c0.6,0.5,1.2,0.7,1.9,0.7s1.4-0.4,1.9-1.1V399l-1.3,0.2c-1.1,0.1-2,0.6-2.7,1.3
			c-0.7,0.7-1,1.7-0.9,2.9C-62.5,404.3-62.1,405-61.6,405.5z"/>
		<path id="XMLID_303_" class="st0" d="M-39,407.4h-9v-0.7h1.8v-15.1H-48v-0.7h7.2v4.3c0.2-1.2,0.6-2.1,1.2-2.9
			c0.6-0.7,1.2-1.2,1.9-1.5c0.7-0.2,1.3-0.4,2-0.4c0.6,0,1.2,0.1,1.8,0.3c0.6,0.2,1,0.7,1.3,1.4c0.3,0.7,0.3,1.4,0,2.1
			c-0.3,0.7-0.7,1.2-1.4,1.5c-0.7,0.3-1.3,0.3-1.8,0.1c-0.6-0.2-0.9-0.5-1.2-0.9c-0.2-0.4-0.4-0.7-0.5-1.1c-0.2-0.9-0.6-1.3-1-1.3
			c-0.5,0-1,0.8-1.5,2.4c-0.6,1.6-0.8,3.2-0.8,5v6.9h1.8V407.4z"/>
		<path id="XMLID_301_" class="st0" d="M-10.2,406.7v0.7c-3.3,0-5.5-0.2-6.8-0.7s-2.5-1.6-3.7-3.5l-2.3-3.5l-0.5,0.4v6.6h1.8v0.7h-9
			v-0.7h1.8V380h-1.8v-0.7h7.2v19.8l7.5-7.5h-2.9v-0.7h6.8v0.7h-2.8l-4.3,4.3l4.3,6.5C-12.9,405.2-11.3,406.7-10.2,406.7z"/>
	</g>
</g>
</svg>
