<?xml version="1.0" encoding="utf-8"?>
<!-- Generator: Adobe Illustrator 22.0.0, SVG Export Plug-In . SVG Version: 6.00 Build 0)  -->
<svg version="1.1" id="Layer_1" xmlns="http://www.w3.org/2000/svg" xmlns:xlink="http://www.w3.org/1999/xlink" x="0px" y="0px"
	 viewBox="0 0 234.2 58.9" style="enable-background:new 0 0 234.2 58.9;" xml:space="preserve">
<style type="text/css">
	.st0{fill:#D9B98E;}
</style>
<polygon class="st0" points="14.4,7.4 13,7.4 0,38.6 1.4,38.6 9.9,18.1 10.1,17.6 19.8,38.6 28.7,38.6 "/>
<g>
	<g id="XMLID_17_">
		<path id="XMLID_25_" class="st0" d="M41,37.9h2v0.8H33v-0.8h2V8.2h-2V7.4h8V37.9z"/>
		<path id="XMLID_24_" class="st0" d="M52.9,22.1c0.9-1.6,2.6-2.3,4.9-2.3s4.3,0.9,5.9,2.6c1.6,1.7,2.3,4.1,2.3,7.2
			s-0.8,5.5-2.3,7.3c-1.6,1.8-3.4,2.7-5.7,2.7c-1.1,0-2.1-0.2-3.1-0.7c-1-0.4-1.7-1.1-2.1-2v9.4h2v0.8h-8v-26h-2v-0.8h8v1.8H52.9z
			 M52.9,29v6.5c0.7,1.4,1.7,2.1,2.8,2.1s2.1-0.7,3-2c0.9-1.3,1.2-3.4,1.2-6.4s-0.3-5-1-6.2c-0.7-1.2-1.7-1.8-2.9-1.8
			s-2.1,0.7-2.6,1.8C53,24.1,52.9,26.1,52.9,29z"/>
		<path id="XMLID_23_" class="st0" d="M89.8,37.9h2v0.8h-10v-0.8h2V26.6c0-1.9-0.3-3.2-0.9-4c-0.6-0.8-1.4-1.2-2.6-1.2
			c-1.6,0-2.8,0.8-3.7,2.4v14h2.1v0.8h-10v-0.8h2V8.2h-2V7.4h8v14.9c0.6-0.7,1.3-1.3,2.3-1.8c1.1-0.4,2.2-0.7,3.6-0.7
			c4.8,0,7.1,2.6,7.1,7.7C89.8,27.5,89.8,37.9,89.8,37.9z"/>
		<path id="XMLID_22_" class="st0" d="M112.4,38.5c-0.8,0.2-1.7,0.3-2.6,0.3c-2.2,0-3.6-0.7-4.1-2c-1.3,1.3-3.3,2.1-6.1,2.1
			c-1.4,0-2.7-0.3-3.7-1c-1-0.7-1.4-1.7-1.4-3c0-1.8,0.7-3.1,2.1-4.1c1.3-1,3.8-1.7,7.3-2.1l1.6-0.2v-2c0-2.3-0.2-3.9-0.6-4.7
			s-1-1.2-2.1-1.2c-1,0-1.7,0.1-2,0.4c-0.3,0.3-0.4,0.6-0.3,1c0.1,0.4,0.2,0.9,0.4,1.4c0.2,0.6,0.3,1,0.3,1.4c0,0.8-0.3,1.6-0.9,2.1
			c-0.6,0.6-1.2,0.9-2.1,0.9c-0.9,0-1.6-0.3-2.1-0.9c-0.6-0.6-0.9-1.2-0.9-2.1c0-1.3,0.7-2.6,2.1-3.6c1.4-1,3.4-1.4,6.3-1.4
			c2.9,0,4.8,0.6,6,1.7c1.2,1.1,1.8,3,1.8,5.8v7.2c0,1.4,0.2,2.3,0.6,2.7c0.3,0.3,1,0.4,1.9,0.2V38
			C113.6,38.1,113.2,38.4,112.4,38.5z M101.2,36.5c0.7,0.6,1.3,0.8,2.1,0.8c0.8,0,1.6-0.4,2.1-1.2v-6.8l-1.4,0.2
			c-1.2,0.1-2.2,0.7-3,1.4c-0.8,0.8-1.1,1.9-1,3.2C100.2,35.2,100.6,36,101.2,36.5z"/>
		<path id="XMLID_21_" class="st0" d="M149.9,37.9h2v0.8h-10v-0.8h2V26.6c0-1.9-0.3-3.2-0.9-4c-0.6-0.8-1.4-1.2-2.6-1.2
			c-0.7,0-1.3,0.2-2,0.6c-0.7,0.3-1.2,0.9-1.7,1.6c0.3,1,0.4,2.3,0.4,4v10.3h2v0.8h-10.4v-0.8h2.4V26.6c0-1.9-0.3-3.2-0.9-4
			c-0.6-0.8-1.4-1.2-2.6-1.2c-1.6,0-2.8,0.8-3.7,2.4v14h2v0.8h-10v-0.8h2V21.1h-2v-0.8h8v2.1c0.6-0.7,1.3-1.3,2.3-1.8
			c1.1-0.4,2.2-0.8,3.6-0.8c3.2,0,5.2,0.9,6.2,2.7c0.7-0.9,1.7-1.6,2.8-2c1.1-0.4,2.3-0.7,3.7-0.7c4.8,0,7.1,2.6,7.1,7.7v10.3H149.9
			z"/>
		<path id="XMLID_20_" class="st0" d="M172.6,38.5c-0.8,0.2-1.7,0.3-2.6,0.3c-2.2,0-3.6-0.7-4.1-2c-1.3,1.3-3.3,2.1-6.1,2.1
			c-1.4,0-2.7-0.3-3.7-1s-1.4-1.7-1.4-3c0-1.8,0.7-3.1,2.1-4.1c1.3-1,3.8-1.7,7.3-2.1l1.6-0.2v-2c0-2.3-0.2-3.9-0.6-4.7
			c-0.3-0.8-1-1.2-2.1-1.2c-1,0-1.7,0.1-2,0.4c-0.3,0.3-0.4,0.6-0.3,1c0.1,0.4,0.2,0.9,0.4,1.4c0.2,0.6,0.3,1,0.3,1.4
			c0,0.8-0.3,1.6-0.9,2.1c-0.6,0.6-1.2,0.9-2.1,0.9s-1.6-0.3-2.1-0.9c-0.6-0.6-0.9-1.2-0.9-2.1c0-1.3,0.7-2.6,2.1-3.6
			c1.4-1,3.4-1.4,6.3-1.4c2.8,0,4.8,0.6,6,1.7c1.2,1.1,1.8,3,1.8,5.8v7.2c0,1.4,0.2,2.3,0.6,2.7c0.3,0.3,1,0.4,1.9,0.2V38
			C173.8,38.1,173.3,38.4,172.6,38.5z M161.3,36.5c0.7,0.6,1.3,0.8,2.1,0.8s1.6-0.4,2.1-1.2v-6.8l-1.4,0.2c-1.2,0.1-2.2,0.7-3,1.4
			c-0.8,0.8-1.1,1.9-1,3.2C160.3,35.2,160.8,36,161.3,36.5z"/>
		<path id="XMLID_19_" class="st0" d="M186.4,38.6h-10v-0.8h2V21.1h-2v-0.8h8v4.8c0.2-1.3,0.7-2.3,1.3-3.2c0.7-0.8,1.3-1.3,2.1-1.7
			c0.8-0.2,1.4-0.4,2.2-0.4c0.7,0,1.3,0.1,2,0.3s1.1,0.8,1.4,1.6c0.3,0.8,0.3,1.6,0,2.3c-0.3,0.8-0.8,1.3-1.6,1.7s-1.4,0.3-2,0.1
			c-0.7-0.2-1-0.6-1.3-1c-0.2-0.4-0.4-0.8-0.6-1.2c-0.2-1-0.7-1.4-1.1-1.4c-0.6,0-1.1,0.9-1.7,2.7c-0.7,1.8-0.9,3.6-0.9,5.5V38h2
			V38.6z"/>
		<path id="XMLID_18_" class="st0" d="M218.4,37.9v0.8c-3.7,0-6.1-0.2-7.5-0.8c-1.4-0.6-2.8-1.8-4.1-3.9l-2.6-3.9l-0.6,0.4v7.3h2
			v0.8h-10v-0.8h2V8.2h-2V7.4h8v22l8.3-8.3h-3.2v-0.8h7.5v0.8h-3.1l-4.8,4.8l4.8,7.2C215.4,36.2,217.2,37.9,218.4,37.9z"/>
	</g>
</g>
<polygon class="st0" points="185.9,47.2 174.2,58.9 175.4,58.9 187.1,47.2 "/>
<polygon class="st0" points="233.1,0 221.4,11.7 222.5,11.7 234.2,0 "/>
</svg>
