<?xml version="1.0" encoding="utf-8"?>
<!-- Generator: Adobe Illustrator 19.0.0, SVG Export Plug-In . SVG Version: 6.00 Build 0)  -->
<svg version="1.1" id="Layer_1" xmlns="http://www.w3.org/2000/svg" xmlns:xlink="http://www.w3.org/1999/xlink" x="0px" y="0px"
	 viewBox="0 0 196.8 35.7" style="enable-background:new 0 0 196.8 35.7;" xml:space="preserve">
<style type="text/css">
	.st0{fill:#D9B98E;}
</style>
<g id="XMLID_299_">
	<polygon id="XMLID_363_" class="st0" points="12.9,0 11.7,0 0,28.1 1.2,28.1 9.1,9.2 18.3,28.1 25.9,28.1 	"/>
	<g id="XMLID_300_">
		<path id="XMLID_361_" class="st0" d="M36.9,27.4h1.8v0.7h-9v-0.7h1.8V0.7h-1.8V0h7.2V27.4z"/>
		<path id="XMLID_358_" class="st0" d="M47.7,13.2c0.8-1.4,2.3-2.1,4.4-2.1s3.9,0.8,5.3,2.3s2.1,3.7,2.1,6.5c0,2.8-0.7,5-2.1,6.6
			s-3.1,2.4-5.1,2.4c-1,0-1.9-0.2-2.8-0.6c-0.9-0.4-1.5-1-1.9-1.8V35h1.8v0.7h-7.2V12.3h-1.8v-0.7h7.2V13.2z M47.7,19.4v5.9
			c0.6,1.3,1.5,1.9,2.5,1.9s1.9-0.6,2.7-1.8s1.1-3.1,1.1-5.8c0-2.7-0.3-4.5-0.9-5.6c-0.6-1.1-1.5-1.6-2.6-1.6S48.6,13,48.2,14
			C47.8,15,47.7,16.8,47.7,19.4z"/>
		<path id="XMLID_356_" class="st0" d="M80.9,27.4h1.8v0.7h-9v-0.7h1.8V17.3c0-1.7-0.3-2.9-0.8-3.6s-1.3-1.1-2.3-1.1
			c-1.4,0-2.5,0.7-3.3,2.2v12.6H71v0.7h-9v-0.7h1.8V0.7H62V0h7.2v13.4c0.5-0.6,1.2-1.2,2.1-1.6c1-0.4,2-0.6,3.2-0.6
			c4.3,0,6.4,2.3,6.4,6.9V27.4z"/>
		<path id="XMLID_353_" class="st0" d="M101.3,28c-0.7,0.2-1.5,0.3-2.3,0.3c-2,0-3.2-0.6-3.7-1.8c-1.2,1.2-3,1.9-5.5,1.9
			c-1.3,0-2.4-0.3-3.3-0.9c-0.9-0.6-1.3-1.5-1.3-2.7c0-1.6,0.6-2.8,1.9-3.7c1.2-0.9,3.4-1.5,6.6-1.9l1.4-0.2v-1.8
			c0-2.1-0.2-3.5-0.5-4.2c-0.3-0.7-0.9-1.1-1.9-1.1c-0.9,0-1.5,0.1-1.8,0.4c-0.3,0.3-0.4,0.5-0.3,0.9s0.2,0.8,0.4,1.3
			c0.2,0.5,0.3,0.9,0.3,1.3c0,0.7-0.3,1.4-0.8,1.9c-0.5,0.5-1.1,0.8-1.9,0.8s-1.4-0.3-1.9-0.8c-0.5-0.5-0.8-1.1-0.8-1.9
			c0-1.2,0.6-2.3,1.9-3.2c1.3-0.9,3.1-1.3,5.7-1.3s4.3,0.5,5.4,1.5c1.1,1,1.6,2.7,1.6,5.2v6.5c0,1.3,0.2,2.1,0.5,2.4
			c0.3,0.3,0.9,0.4,1.7,0.2v0.4C102.4,27.6,102,27.9,101.3,28z M91.2,26.2c0.6,0.5,1.2,0.7,1.9,0.7s1.4-0.4,1.9-1.1v-6.1l-1.3,0.2
			c-1.1,0.1-2,0.6-2.7,1.3s-1,1.7-0.9,2.9C90.3,25,90.7,25.7,91.2,26.2z"/>
		<path id="XMLID_308_" class="st0" d="M135.1,27.4h1.8v0.7h-9v-0.7h1.8V17.3c0-1.7-0.3-2.9-0.8-3.6s-1.3-1.1-2.3-1.1
			c-0.6,0-1.2,0.2-1.8,0.5s-1.1,0.8-1.5,1.4c0.3,0.9,0.4,2.1,0.4,3.6v9.3h1.8v0.7h-9.4v-0.7h2.2V17.3c0-1.7-0.3-2.9-0.8-3.6
			s-1.3-1.1-2.3-1.1c-1.4,0-2.5,0.7-3.3,2.2v12.6h1.8v0.7h-9v-0.7h1.8V12.3h-1.8v-0.7h7.2v1.9c0.5-0.6,1.2-1.2,2.1-1.6
			c1-0.4,2-0.7,3.2-0.7c2.9,0,4.7,0.8,5.6,2.4c0.6-0.8,1.5-1.4,2.5-1.8c1-0.4,2.1-0.6,3.3-0.6c4.3,0,6.4,2.3,6.4,6.9V27.4z"/>
		<path id="XMLID_305_" class="st0" d="M155.5,28c-0.7,0.2-1.5,0.3-2.3,0.3c-2,0-3.2-0.6-3.7-1.8c-1.2,1.2-3,1.9-5.5,1.9
			c-1.3,0-2.4-0.3-3.3-0.9c-0.9-0.6-1.3-1.5-1.3-2.7c0-1.6,0.6-2.8,1.9-3.7c1.2-0.9,3.4-1.5,6.6-1.9l1.4-0.2v-1.8
			c0-2.1-0.2-3.5-0.5-4.2c-0.3-0.7-0.9-1.1-1.9-1.1c-0.9,0-1.5,0.1-1.8,0.4c-0.3,0.3-0.4,0.5-0.3,0.9s0.2,0.8,0.4,1.3
			c0.2,0.5,0.3,0.9,0.3,1.3c0,0.7-0.3,1.4-0.8,1.9c-0.5,0.5-1.1,0.8-1.9,0.8s-1.4-0.3-1.9-0.8c-0.5-0.5-0.8-1.1-0.8-1.9
			c0-1.2,0.6-2.3,1.9-3.2c1.3-0.9,3.1-1.3,5.7-1.3c2.5,0,4.3,0.5,5.4,1.5c1.1,1,1.6,2.7,1.6,5.2v6.5c0,1.3,0.2,2.1,0.5,2.4
			c0.3,0.3,0.9,0.4,1.7,0.2v0.4C156.6,27.6,156.2,27.9,155.5,28z M145.4,26.2c0.6,0.5,1.2,0.7,1.9,0.7c0.7,0,1.4-0.4,1.9-1.1v-6.1
			l-1.3,0.2c-1.1,0.1-2,0.6-2.7,1.3s-1,1.7-0.9,2.9C144.5,25,144.9,25.7,145.4,26.2z"/>
		<path id="XMLID_303_" class="st0" d="M168,28.1h-9v-0.7h1.8V12.3H159v-0.7h7.2v4.3c0.2-1.2,0.6-2.1,1.2-2.9
			c0.6-0.7,1.2-1.2,1.9-1.5c0.7-0.2,1.3-0.4,2-0.4c0.6,0,1.2,0.1,1.8,0.3c0.6,0.2,1,0.7,1.3,1.4c0.3,0.7,0.3,1.4,0,2.1
			c-0.3,0.7-0.7,1.2-1.4,1.5s-1.3,0.3-1.8,0.1c-0.6-0.2-0.9-0.5-1.2-0.9c-0.2-0.4-0.4-0.7-0.5-1.1c-0.2-0.9-0.6-1.3-1-1.3
			c-0.5,0-1,0.8-1.5,2.4c-0.6,1.6-0.8,3.2-0.8,5v6.9h1.8V28.1z"/>
		<path id="XMLID_301_" class="st0" d="M196.8,27.4v0.7c-3.3,0-5.5-0.2-6.8-0.7c-1.3-0.5-2.5-1.6-3.7-3.5l-2.3-3.5l-0.5,0.4v6.6h1.8
			v0.7h-9v-0.7h1.8V0.7h-1.8V0h7.2v19.8l7.5-7.5h-2.9v-0.7h6.8v0.7h-2.8l-4.3,4.3l4.3,6.5C194.1,25.9,195.7,27.4,196.8,27.4z"/>
	</g>
</g>
</svg>
